<?xml version="1.0" encoding="UTF-8"?>
<svg id="Camada_1" data-name="Camada 1" xmlns="http://www.w3.org/2000/svg" viewBox="15 12 505 70">
  <defs>
    <style>
      .cls-1 {
        fill: #000;
	fill-opacity: 0;
      }
    </style>
  </defs>
  <path class="cls-1" d="M538.44,0v92.28H0V0h538.44ZM16.44,74.82c-.2,1.42.15,3.27,0,4.74h13.92l.03-5.49c-.15-.32-1.07-.42-1.44-.59-.25-.11-1.27-.77-1.51-1.01-.52-.49-.65-.72-.56-1.49.11-.94.9-2.68,1.24-3.68.59-1.77,1.73-4.21,2.12-5.7.13-.47-.05-.78.49-1.16.68-.48,1.72-.42,2.57-.44,2.12-.05,4.25.03,6.37.01,4.99-.05,10.38-.27,15.36,0,.69.04,1.18.19,1.7.36.19.06.48,0,.67.12.16.1.13.36.21.52.82,1.66,1.42,3.78,2.06,5.64.38,1.09.9,2.2,1.25,3.31.07.22.38,1.17.39,1.29.04.45-.22.42-.35.63-.04.06.03.25-.04.35-.08.13-1.43,1.13-1.63,1.22-.44.19-1.71.22-1.71.91v5.22h26.52v-4.14c0-.09-.25-.98-.3-1.14-.23-.63-.5-.7-1.03-1.01-.4-.23-1.22-.53-1.58-.79-1.1-.81-1.52-2.44-1.97-3.7-.36-.99-.67-2.14-1.03-3.17-.92-2.62-2.18-5.49-2.73-8.05-.02-.08-.2-.07-.26-.25-1.31-3.95-2.66-7.57-4.02-11.45-1.1-3.15-2.12-6.66-3.39-9.71-.72-1.74-1.28-3.97-1.96-5.93-.75-2.14-1.69-4.18-2.13-6.25-.02-.08-.2-.08-.26-.25-.91-2.86-1.84-5.4-2.82-8.09-.28-.76-.85-2.9-1.41-3.39-.31-.27-1.02-.33-1.44-.36-5.45-.37-11.32.3-16.81,0-1.09.1-.63.42-.78,1.12-.01.05-.5.63-.57.89-.46,1.84-1.19,3.49-1.82,5.29-1.61,4.58-3.18,9.39-4.73,13.85-2.17,6.26-4.32,12.32-6.43,18.43-.79,2.29-1.44,4.34-2.23,6.63-1.51,4.35-3.17,8.78-4.63,13.23-.03.1-1.2,1.37-1.36,1.49-.81.63-1.82.73-2,2.02ZM169.56,11.88h-58.62l-.18.18v19.5h5.64c.23-1.17.06-2.36.12-3.54.13-2.88.64-6.38,3.34-7.85,2.17-1.17,5.04-.86,7.52-.84,1.22,0,2.95-.16,4.09-.01.27.04.41.2.65.25v51.6s-.18-.05-.24.09c-.09.22-.04.59-.16.84-.22.42-1.98,1.34-2.45,1.45-.39.09-.78.22-.96.26-.22.05-.77-.06-.87.02.05.2-.25.6-.25.65v5.1h25.92v-5.58c-.58-.28-1.31-.33-1.94-.58-.56-.22-1.05-.56-1.51-.79-.12-.06-.32-.05-.42-.12-.36-.27-.64-.81-.69-1.26-.36-3.3-.13-6.55-.11-9.84.08-13.96-.06-27.92-.01-41.87.03-.12.64-.19.78-.2,1.72-.11,8.69-.23,9.98.22.97.34,1.73.76,2.5,1.46,1.43,1.3,1.67,2.55,1.99,4.36.37,2.11.41,4.04.35,6.19h5.46s.3-.28.3-.3V12.12s-.13.02-.2-.04-.03-.19-.04-.2ZM173.04,12v4.98c0,.55.72.95,1.19,1.09s1.34.24,1.78.45c.38.18.78.59,1.04.87.15.17.53.39.56.59-.07,14.84,0,29.7.11,44.53.01,2.06.15,4.7-.11,6.72-.01.1-.24.84-.27.87-.05.05-.24,0-.3.05-.07.06.01.27-.1.34-.46.33-1.49.83-2.08,1.02-.62.2-1.32.02-1.81.74l-.1,5.12.16.2h25.86v-5.34c0-.39-.54-.35-.75-.43-.91-.36-2.01-.61-2.94-.98-.03-.01-.38-.47-.48-.57-.08-.07-.28-.06-.36-.14-.38-.38.04-2.95-.27-3.63.27-5.67-.35-11.66,0-17.29.05-.74.15-1.28.55-1.86,2.82-.09,5.69-.23,8.52-.12.81.03,1.66.12,2.31.36.54.19.95.04,1.38.13.12.03,1.88.92,2.16,1.08,2.41,1.45,4.02,4.73,4.41,7.38.8,5.48-.3,13.38,2.84,17.75.77,1.07,1.34,1.47,2.29,2.08.84.54,2.84,1.6,3.81,1.6h12.78c.27-.54,0-.99,0-1.5-.02-.84.15-2.47-.06-3.18-.08-.25-.44-.51-.67-.65-.39-.25-1.01-.29-1.33-.44s-1.33-.76-1.6-.99c-.44-.38-1.23-1.81-1.35-2.32-.07-.31.03-.65-.03-.91-.02-.1-.22-.03-.25-.25-.44-3.35-.11-7.2-.35-10.57-.2-2.89-1.5-6.08-3.35-8.2-.79-.9-1.73-1.59-2.56-2.51-.05-.06-.23-.01-.33-.11-.25-.24-.34-.95-.09-1.21.07-.07.74-.38.78-.42.47-.52,1.02-.86,1.55-1.33,4.74-4.16,6.19-9.28,5.92-15.61-.22-5.22-1.82-9.49-5.58-12.95-2.53-2.33-5.44-4-8.99-4.39-.52-.06-1.26-.11-1.79-.13-13.67-.56-27.71.43-41.41,0l-.65.13ZM265.8,12c-.12.04-.26-.12-.3-.12h-25.38s-.25.39-.25.41c-.13,1.01-.03,4.04.32,4.98.14.39.83.72,1.22.82.96.24.95.15,1.85.67,1.24.71,1.3,1.23,1.42,2.66v49.32c-.02.97-.82,1.88-1.64,2.31s-1.24.33-2,.5c-.09.02-.07.21-.16.24-.22.05-.5-.05-.69,0-.11.02-.04.23-.1.33-.04.07-.2.03-.2.04v5.28c.12-.04.26.12.3.12h25.62v-4.5c0-.07-.34-.78-.43-.89-.54-.76-.93-.5-1.64-.74-.09-.03-.09-.19-.19-.22-.33-.11-1.15-.26-1.44-.4-.26-.13-.93-1.17-.99-1.47-.06-13.56.05-27.12,0-40.68,0-2.42-.21-4.88-.13-7.32.03-.89.06-3.24.52-3.86.03-.03.56-.58.6-.6.13-.09.5-.08.72-.16.84-.31.99-.39,1.93-.59.05-.01.49-.5.89-.38.03-.02.15-.25.15-.27v-5.46ZM269.52,79.56h47.82c.1,0,1.66-.34,1.89-.39,2.47-.56,5.08-1.86,6.88-3.37,2.75-2.31,4.12-5.41,4.98-8.65,2.13-8.07-.16-15.54-6.94-20.1-.39-.26-1.12-.54-1.43-.77-.43-.32-.99-1.11-.49-1.61.07-.06.75-.39.78-.42.19-.22.12-.17.39-.41,1.6-1.46,3.94-4.71,4.7-6.55,2.91-7.11,1.49-16.37-4.4-21.26-3.7-3.07-7.65-3.85-12.46-4.16l-41.35.07c-.15.08-.21.2-.24.36-.13.67-.07,2.96,0,3.72.08.97.26,1.67,1.26,1.98.44.13.73.05,1.06.12.1.02.09.22.23.28.22.09.5.03.66.12.47.24,1.41,1.61,1.47,2.18.26,2.53,0,5.28,0,7.79-.03,11.28-.04,22.57,0,33.85,0,1.86.19,3.75.13,5.64-.03.9-.03,2.26-.14,3.1-.09.74-.88,1.64-1.52,1.98s-1.33.34-1.98.49c-.09.02-.07.21-.16.24-.28.07-.68-.06-.98.14l-.14,5.62ZM356.16,11.88h-24.9s-.38.24-.39.26c-.22.37.05,4.5.3,5.1.15.36,1.06.8,1.41.86.27.05.59-.05.81,0,.06.01.73.52.89.6s.36.07.48.16c.65.46.72,2.02.76,2.78.59,12.05-.68,24.56.23,36.61.24,3.18.75,4.91,1.93,7.76,1.04,2.5,2.57,5.44,4.55,7.68,1.76,1.99,3.36,2.91,5.72,4.05.97.47,1.76.76,2.82,1.11.41.14.68.49,1.29.34v.33c.76,0,1.53.43,2.24.6,1.22.29,3.08.6,4.31.73s1.9-.05,3.14.24c.29.07,2.08.13,2.49.12,3.71-.04,7.91-1.5,10.82-3.41,5.56-3.63,8.81-9.88,9.89-16.45V20.33c.5-.9.57-1.15,1.47-1.61.14-.07.95-.59,1.01-.6.25-.05.55.05.8,0,.1-.02.09-.22.23-.28.22-.09.52-.03.67-.11.1-.05.39-.87.39-.99v-4.86h-12.42c-.07,0-.9.17-.99.21-.22.09-.43.37-.48.6-.2.92-.2,3.2.06,4.09.2.72.59.83,1.16,1.1.08.04.07.22.17.24.25.05.55-.05.8,0,.1.02.09.22.23.28.52.2.91.22,1.38.73.14.15.62,1.02.64,1.21.33,3.15-.24,6.87,0,10.09.04,6.97-.03,14.01,0,21,.01,3.6.66,8.81-.58,12.03-2.17,5.6-3.61,7.87-9.1,10.34-1.19.53-2.14,1.01-3.56,1.1-2.75.17-6.7-1.07-8.78-2.81-1.2-1.01-2.5-2.59-3.42-3.82-.81-1.08-1.18-1.9-1.58-3.12s-.79-2.5-1.17-3.53c.1-13.15-.61-26.45,0-39.57.04-.8-.2-1.83.24-2.49.16-.24,1.03-.9,1.3-1.04.62-.33,1.32-.4,2.06-.68.18-.07.53,0,.62-.12.07-.1.23-1.01.23-1.19,0-.28-.17-.59-.13-.82.02-.09.22-.02.25-.25.08-.57.07-2.56,0-3.13,0-.02-.23-.4-.25-.41ZM413.1,11.88h-19.92l-.18.18v5.4c0,.27.87.35,1.11.43.08.03.09.21.18.23.91.19,1.06.16,1.92.6s1.14.77,1.48,1.73v50.66c-.02.1-.36.95-.4.99-.08.09-.29.07-.36.14-.26.26-.63.72-.98.86-.66.28-1.44.43-2.08.69-.12.05-.35-.03-.51.06-.07.04-.36.67-.36.72v4.98h14.28v-5.58c-.52-.44-1.24-.35-1.83-.55-.09-.03-.09-.18-.19-.22-.88-.31-1.02-.27-1.76-.92-.06-.05-.22-.02-.27-.08-.16-.19-.31-.71-.41-.95-.05-.12-.25-.09-.24-.27V30.41c.41-.32.14-1.07.77-.9.18.05,1.7,2.74,1.77,3.15.25.44.32.39.56.6.08.07.18.67.28.84.4.72.66.92.99,1.75.01.04.5.36.53.42.13.26.39,1.39.66,1.62.08.07.28,0,.31.04.07.07-.02.35.02.51.02.1.2.09.24.17.82,1.75,1.85,3.24,2.76,4.8,6.58,11.37,12.89,22.3,19.56,33.6.33.56.57,1.13.88,1.61.24.37.43.75.86.94h14.28l.18-.18V20.58c0-.5.51-.88.79-1.19,1.12-1.23,1.59-1.1,3.16-1.58.2-.06.4-.05.61-.05.12-.86-.13-1.76-.13-2.58,0-.4.13-.73.13-1.08,0-.68.12-1.66-.18-2.22h-13.98v5.68c.02.05,1.04.5,1.17.53.56.13.56.11,1.04.29.24.09.62.04.77.13.06.03.07.21.16.26.14.09.33.03.44.1.07.04.99,1.26,1,1.34v41.41c-.27.46-.47.61-.88.17-.11-.12-.33-.65-.36-.68-.08-.07-.27,0-.31-.05-.07-.07-.55-1.46-.74-1.82-2.07-3.82-4.18-7.41-6.35-11.34-.2-.36-.4-1.15-.61-1.51-.09-.15-.31-.04-.35-.09-.07-.07.02-.45-.02-.63-.01-.07-.57-.91-.72-1.2-2.01-3.82-4.56-7.79-6.49-11.87-.07-.15-.37-.19-.24-.69l-.33-.02c-.06-.07.02-.29-.02-.37-.75-1.47-1.81-3.27-2.62-4.76-1.99-3.66-3.94-7.26-5.9-10.78-.55-.99-1.24-2.67-1.99-3.51-.29-.32-.77-.55-1.19-.61ZM449.04,74.94c-.21,1.36.16,3.21,0,4.62h14.76v-5.64c-.22-.1-.56-.06-.75-.13-.39-.14-1.6-.71-1.97-.99-.23-.17-1.02-1.26-1-1.57.02-.27.52-1.27.64-1.65.84-2.75,1.7-5.36,2.81-7.93.12-.27.14-.95.44-1.18.15-.11.34-.06.45-.12.29-.15.26-.27.79-.31,3.29-.27,6.63-.04,9.92-.03,4.67.02,9.4-.3,14.03.04.27.02.75.03.96.08.09.02.09.18.18.23.52.26.55.14.83.83,1.14,2.83,2.17,6.12,3.06,8.94.08.24.28.39.33.63.19.98-.38,1.62-1.1,2.13-.59.42-1.06.48-1.62.72-.13.06-.75.8-.75.98v4.98h26.04v-4.14c0-.29-.3-1.31-.48-1.56-.41-.57-1.17-.73-1.64-1.06-.15-.11-.35-.46-.49-.56-.14-.1-.39-.05-.49-.15-.07-.06-.33-.72-.4-.83-1-1.84-1.43-4.01-2.13-5.93-2.14-5.91-4.39-12.17-6.44-18.04-1.92-5.49-3.77-11.09-5.61-16.35-1.09-3.14-2.32-6.29-3.35-9.25s-1.77-5.49-2.83-8.09c-.13-.32-.21-.77-.45-1.1-.41-.55-1.36-.57-2.03-.61-5.33-.32-10.97.26-16.33,0l-.83.37c-.02.46-.26.77-.4,1.17-.81,2.26-1.66,4.75-2.49,7.11-1.67,4.79-3.35,9.9-5.01,14.67-1.02,2.94-2.04,5.62-3.03,8.49-1.38,3.97-2.66,7.9-4.08,12-.17.5-.83,1.78-.9,2.12-.05.25.06.57,0,.79-.03.12-.26.1-.34.28-1,2.44-1.66,5.21-2.45,7.51-.33.95-.67,1.97-.99,2.85-.7,1.88-1.35,3.24-3.16,4.19-.38.2-.82.1-1.23.54-.16.17-.44.76-.47.97Z"/>
  <path d="M269.52,79.56l.14-5.62c.3-.2.7-.07.98-.14.09-.02.07-.21.16-.24.65-.15,1.33-.14,1.98-.49s1.43-1.24,1.52-1.98c.11-.84.11-2.2.14-3.1.06-1.89-.12-3.78-.13-5.64-.04-11.28-.03-22.57,0-33.85,0-2.52.26-5.26,0-7.79-.06-.58-1-1.94-1.47-2.18-.17-.09-.44-.03-.66-.12-.14-.05-.13-.26-.23-.28-.34-.07-.62.02-1.06-.12-1-.31-1.18-1.01-1.26-1.98-.06-.76-.12-3.05,0-3.72.03-.16.09-.28.24-.36l41.35-.07c4.82.31,8.76,1.09,12.46,4.16,5.89,4.88,7.31,14.15,4.4,21.26-.75,1.84-3.1,5.08-4.7,6.55-.26.24-.19.19-.39.41-.03.03-.71.36-.78.42-.5.5.06,1.3.49,1.61.31.22,1.03.5,1.43.77,6.78,4.56,9.07,12.03,6.94,20.1-.85,3.24-2.23,6.34-4.98,8.65-1.8,1.51-4.41,2.81-6.88,3.37-.23.05-1.79.39-1.89.39h-47.82ZM306.92,19.61c-2.97-1.25-6.79-1.11-9.97-1.13-1.17,0-3.01-.15-4.09,0-.22.03-.16.23-.25.25-.32.07-1.21-.03-1.45.39-.06.1,0,.28-.04.35-.07.13-.21.07-.24.27-.19,1.43.06,3.52.01,5.05-.04,1.23-.22,2.61-.25,3.83-.09,4.26.28,8.48.24,12.73,0,.05.59.83.64.85.35.14.88.07,1.2.17.11.03.04.22.26.24,2.97.39,6.79-.32,9.86,0,.52-.46,1.56-.23,2.27-.38,1.54-.32,3.64-1.61,4.77-2.63,1.51-1.36,2.83-3.96,3.3-5.86.85-3.37.13-7.2-1.5-9.95-1.12-1.88-2.94-3.43-4.75-4.19ZM306.93,49.35c-1.07-.46-6.62-.29-8.07-.27-.89.02-7.27.03-7.52.31-.14.16-.24.62-.48.82-.1,7.42-.1,14.81,0,22.21.52.9.51,1.07,1.62,1.14,4.68.28,9.67-.2,14.38-.03,2.75-.78,4.72-2.67,6.24-4.93,2.54-3.78,2.77-8.6,1.02-12.72-1.22-2.86-3-4.79-5.88-5.98-.4-.16-.91-.38-1.32-.56Z"/>
  <path d="M173.04,12l.65-.13c13.71.43,27.74-.56,41.41,0,.53.02,1.28.07,1.79.13,3.56.39,6.46,2.07,8.99,4.39,3.77,3.46,5.36,7.73,5.58,12.95.27,6.33-1.18,11.46-5.92,15.61-.53.46-1.08.81-1.55,1.33-.03.04-.71.35-.78.42-.26.26-.17.97.09,1.21.11.1.28.05.33.11.82.92,1.77,1.61,2.56,2.51,1.86,2.12,3.15,5.31,3.35,8.2.24,3.37-.09,7.22.35,10.57.03.22.23.16.25.25.06.27-.04.6.03.91.11.51.9,1.94,1.35,2.32.27.23,1.3.85,1.6.99s.94.2,1.33.44c.22.14.59.4.67.65.22.71.04,2.34.06,3.18.01.51.27.95,0,1.5h-12.78c-.97,0-2.97-1.06-3.81-1.6-.95-.61-1.53-1.01-2.29-2.08-3.14-4.37-2.04-12.27-2.84-17.75-.39-2.64-2-5.93-4.41-7.38-.27-.16-2.03-1.05-2.16-1.08-.43-.09-.85.06-1.38-.13-.65-.23-1.5-.32-2.31-.36-2.83-.11-5.69.03-8.52.12-.4.58-.51,1.12-.55,1.86-.35,5.64.27,11.62,0,17.29.31.68-.1,3.25.27,3.63.08.08.28.07.36.14.11.1.45.56.48.57.94.37,2.03.62,2.94.98.21.08.75.04.75.43v5.34h-25.86l-.16-.2.1-5.12c.49-.72,1.19-.54,1.81-.74.59-.19,1.61-.69,2.08-1.02.11-.08.03-.28.1-.34s.25,0,.3-.05c.03-.03.26-.78.27-.87.26-2.03.12-4.66.11-6.72-.1-14.83-.17-29.69-.11-44.53-.03-.2-.41-.42-.56-.59-.26-.28-.66-.7-1.04-.87-.44-.2-1.32-.31-1.78-.45s-1.19-.54-1.19-1.09v-4.98ZM205.17,18.52c-.42-.19-8.32-.16-9.16-.05-.22.03-.15.22-.26.25-.51.12-1.03-.1-1.39.51l-.02,22.53c.32.04.27.42.31.46.15.14,1.03.04,1.29.1.28.06.22.27.43.3,1.56.19,6.76.2,8.29,0,.21-.03.16-.22.26-.24.58-.14,1.2-.06,1.74-.16,1.5-.29,3.44-1.59,4.57-2.37.77-.54,2.55-3.22,2.88-3.99,1.42-3.31,1.33-7.05.1-10.15-.92-2.31-1.57-3.18-3.2-4.63-.43-.38-.88-1.04-1.48-.93l-.02-.33c-.49.11-.63-.22-.92-.34-1.12-.45-2.58-.57-3.42-.95Z"/>
  <path d="M413.1,11.88c.42.05.91.29,1.19.61.75.84,1.44,2.52,1.99,3.51,1.95,3.52,3.91,7.12,5.9,10.78.81,1.49,1.86,3.28,2.62,4.76.04.09-.04.3.02.37l.33.02c-.13.5.17.54.24.69,1.93,4.08,4.48,8.06,6.49,11.87.15.28.71,1.13.72,1.2.04.18-.05.55.02.63.04.04.26-.06.35.09.2.35.41,1.15.61,1.51,2.17,3.93,4.27,7.52,6.35,11.34.2.36.67,1.75.74,1.82.04.04.23-.02.31.05.03.02.25.56.36.68.4.44.61.29.88-.17V20.21c0-.08-.93-1.3-1-1.34-.11-.06-.3-.01-.44-.1-.08-.05-.1-.23-.16-.26-.15-.09-.53-.05-.77-.13-.48-.17-.48-.16-1.04-.29-.12-.03-1.14-.48-1.18-.53v-5.68h13.99c.31.57.19,1.54.18,2.22,0,.35-.13.68-.13,1.08,0,.82.25,1.72.13,2.58-.2,0-.41,0-.61.05-1.57.48-2.04.35-3.16,1.58-.28.31-.79.69-.79,1.19v58.8l-.18.18h-14.28c-.43-.2-.62-.58-.86-.94-.32-.48-.56-1.06-.88-1.61-6.67-11.3-12.98-22.23-19.56-33.6-.91-1.56-1.94-3.06-2.76-4.8-.04-.08-.21-.07-.24-.17-.03-.15.05-.43-.02-.51-.03-.04-.23.03-.31-.04-.27-.22-.54-1.36-.66-1.62-.03-.06-.52-.39-.53-.42-.33-.82-.58-1.02-.99-1.75-.1-.17-.2-.77-.28-.84-.24-.21-.31-.16-.56-.6-.07-.41-1.6-3.1-1.77-3.15-.63-.17-.35.57-.77.9v40.57c-.01.18.19.15.24.27.1.24.25.76.41.95.05.05.21.02.27.08.74.66.88.61,1.76.92.1.04.09.19.19.22.59.2,1.31.12,1.83.55v5.58h-14.28v-4.98c0-.05.29-.69.36-.72.17-.09.39-.01.51-.06.64-.27,1.42-.41,2.08-.69.35-.15.71-.61.98-.86.07-.07.28-.05.36-.14.03-.04.38-.89.39-.99V20.45c-.34-.95-.63-1.28-1.48-1.73s-1.01-.41-1.92-.6c-.09-.02-.1-.2-.18-.23-.23-.07-1.11-.16-1.11-.43v-5.4l.18-.18h19.92Z"/>
  <path d="M449.04,74.94c.03-.2.31-.79.47-.97.41-.44.85-.34,1.23-.54,1.8-.95,2.45-2.31,3.16-4.19.33-.88.67-1.9.99-2.85.79-2.3,1.44-5.08,2.45-7.51.07-.18.31-.17.34-.28.06-.22-.05-.54,0-.79.07-.34.72-1.62.9-2.12,1.42-4.11,2.7-8.03,4.08-12,.99-2.87,2.01-5.54,3.03-8.49,1.66-4.77,3.33-9.88,5.01-14.67.83-2.36,1.68-4.85,2.49-7.11.14-.39.38-.7.4-1.17l.83-.37c5.36.26,11.01-.32,16.33,0,.67.04,1.63.06,2.03.61.24.33.32.78.45,1.1,1.06,2.6,1.83,5.22,2.83,8.09s2.26,6.12,3.35,9.25c1.84,5.27,3.68,10.86,5.61,16.35,2.05,5.87,4.3,12.13,6.44,18.04.7,1.93,1.13,4.09,2.13,5.93.06.11.33.77.4.83.1.1.35.05.49.15.14.1.34.45.49.56.47.33,1.22.49,1.64,1.06.18.25.48,1.28.48,1.56v4.14h-26.04v-4.98c0-.19.62-.93.75-.98.56-.24,1.03-.3,1.62-.72.73-.51,1.3-1.15,1.1-2.13-.05-.24-.25-.39-.33-.63-.89-2.82-1.93-6.11-3.06-8.94-.28-.69-.31-.56-.83-.83-.09-.04-.09-.21-.18-.23-.21-.05-.69-.06-.96-.08-4.63-.34-9.36-.02-14.03-.04-3.29-.02-6.64-.24-9.92.03-.53.04-.5.16-.79.31-.11.06-.3,0-.45.12-.3.23-.33.91-.44,1.18-1.1,2.57-1.96,5.18-2.81,7.93-.12.38-.62,1.39-.64,1.65-.02.31.76,1.4,1,1.57.37.28,1.59.85,1.97.99.19.07.53.03.75.13v5.64h-14.76c.16-1.41-.21-3.26,0-4.62ZM477.59,22.45c-.85-.11-.59.43-.74.86-.6,1.66-1.22,3.24-1.83,5.01-1.52,4.36-2.9,8.58-4.39,12.87-.06.18-.58,1.07-.59,1.13-.05.25.05.55,0,.8s-.77,1.74-.93,2.21c-.56,1.6-1.03,3.37-1.82,4.81.02.81-1.44,3.18-.16,3.48l19.54.04,1.36-.44c.01-.29.06-.66.01-.94-.08-.41-.49-1.07-.62-1.43-.78-2.16-1.49-4.4-2.24-6.75-.47-1.47-1.22-3.17-1.79-4.81-1.16-3.34-2.24-6.66-3.44-10.12-.7-2.01-1.36-3.79-2.09-5.73-.06-.15-.22-.94-.26-.98Z"/>
  <path d="M16.44,74.82c.18-1.3,1.19-1.4,2-2.02.16-.12,1.33-1.39,1.36-1.49,1.45-4.44,3.12-8.87,4.63-13.23.79-2.29,1.44-4.34,2.23-6.63,2.12-6.12,4.26-12.18,6.43-18.43,1.55-4.46,3.12-9.27,4.73-13.85.63-1.79,1.35-3.44,1.82-5.29.06-.26.56-.84.57-.89.15-.7-.32-1.02.78-1.12,5.49.3,11.36-.37,16.81,0,.42.03,1.13.09,1.44.36.56.49,1.14,2.63,1.41,3.39.99,2.69,1.91,5.24,2.82,8.09.05.17.24.16.26.25.44,2.07,1.38,4.11,2.13,6.25.69,1.97,1.24,4.19,1.96,5.93,1.27,3.05,2.28,6.56,3.39,9.71,1.36,3.88,2.72,7.5,4.02,11.45.06.17.24.16.26.25.55,2.56,1.8,5.44,2.73,8.05.36,1.03.67,2.18,1.03,3.17.46,1.26.87,2.89,1.97,3.7.35.26,1.18.55,1.58.79.53.31.8.38,1.03,1.01.06.15.3,1.05.3,1.14v4.14h-26.52v-5.22c0-.69,1.26-.72,1.71-.91.2-.09,1.55-1.09,1.63-1.22.06-.11,0-.29.04-.35.13-.21.39-.18.35-.63-.01-.12-.32-1.07-.39-1.29-.35-1.11-.88-2.22-1.25-3.31-.64-1.86-1.24-3.98-2.06-5.64-.08-.16-.04-.41-.21-.52-.2-.13-.48-.06-.67-.12-.53-.17-1.01-.32-1.7-.36-4.98-.26-10.37-.04-15.36,0-2.12.02-4.25-.06-6.37-.01-.84.02-1.89-.04-2.57.44-.55.39-.37.69-.49,1.16-.39,1.49-1.52,3.93-2.12,5.7-.34,1-1.13,2.75-1.24,3.68-.09.77.04,1,.56,1.49.25.23,1.26.89,1.51,1.01.38.17,1.29.28,1.44.59l-.03,5.49h-13.92c.15-1.47-.2-3.32,0-4.74ZM44.27,22.46c-.06-.06-.37-.03-.47.04-.19.12-.17.61-.25.81-.88,2.43-1.78,4.8-2.69,7.42-.99,2.85-1.87,5.61-2.86,8.42-1.14,3.24-2.25,6.43-3.41,9.67-.33.94-.93,2.09-1.18,3.14-.18.76-.33,1.26.39,1.68h20.14c.28-.22.34-.31.77-.23.09-1.46-.69-2.74-1.14-4.08-.81-2.37-1.67-4.8-2.48-7.13-.93-2.68-1.66-5.03-2.56-7.64-1.05-3.03-2.16-6.04-3.09-8.91-.25-.75-.64-1.48-.9-2.22-.11-.32.03-.28-.22-.68-.06-.1-.04-.28-.06-.3Z"/>
  <path d="M169.56,11.88s-.02.14.04.2.2.03.2.04v19.14s-.28.3-.3.3h-5.46c.07-2.15.03-4.08-.35-6.19-.32-1.82-.56-3.06-1.99-4.36-.78-.71-1.53-1.12-2.5-1.46-1.29-.45-8.27-.34-9.98-.22-.14,0-.75.07-.78.2-.05,13.96.09,27.92.01,41.87-.02,3.29-.25,6.54.11,9.84.05.45.33.99.69,1.26.1.08.3.06.42.12.46.23.95.57,1.51.79.63.25,1.36.3,1.94.58v5.58h-25.92v-5.1s.31-.45.25-.65c.09-.08.65.04.87-.02.18-.04.57-.18.96-.26.47-.11,2.23-1.03,2.45-1.45.13-.24.07-.61.16-.84.06-.14.24-.07.24-.09V19.56c-.25-.05-.38-.21-.65-.25-1.14-.15-2.87.02-4.09.01-2.49-.02-5.35-.33-7.52.84-2.7,1.47-3.21,4.97-3.34,7.85-.05,1.18.12,2.38-.12,3.54h-5.64V12.06l.18-.18h58.62Z"/>
  <path d="M356.16,11.88s.25.39.25.41c.08.58.08,2.56,0,3.13-.03.23-.24.16-.25.25-.04.23.14.54.13.82,0,.18-.16,1.09-.23,1.19-.09.13-.44.05-.62.12-.74.28-1.44.35-2.06.68-.26.14-1.14.81-1.3,1.04-.43.66-.2,1.69-.24,2.49-.62,13.12.1,26.43,0,39.57.38,1.03.79,2.36,1.17,3.53s.77,2.04,1.58,3.12c.91,1.22,2.22,2.81,3.42,3.82,2.08,1.75,6.03,2.99,8.78,2.81,1.42-.09,2.37-.56,3.56-1.1,5.49-2.46,6.94-4.73,9.1-10.34,1.24-3.21.6-8.43.58-12.03-.03-7,.04-14.03,0-21-.24-3.22.34-6.93,0-10.09-.02-.19-.5-1.06-.64-1.21-.47-.51-.86-.52-1.38-.73-.14-.05-.13-.26-.23-.28-.25-.05-.55.05-.8,0-.1-.02-.09-.2-.17-.24-.56-.27-.95-.39-1.16-1.1-.26-.9-.26-3.18-.06-4.09.05-.23.27-.51.48-.6.09-.04.92-.21.99-.21h12.42v4.86c0,.12-.29.94-.39.99-.14.08-.45.02-.67.11-.14.05-.13.26-.23.28-.25.05-.55-.05-.8,0-.06.01-.87.53-1.01.6-.9.46-.97.71-1.48,1.61v41.05c-1.07,6.58-4.32,12.82-9.87,16.45-2.91,1.9-7.11,3.36-10.82,3.41-.42,0-2.21-.06-2.49-.12-1.24-.29-1.92-.1-3.14-.24s-3.09-.44-4.31-.73c-.71-.17-1.48-.61-2.23-.6v-.33c-.62.15-.89-.2-1.3-.34-1.06-.35-1.85-.65-2.82-1.11-2.36-1.14-3.96-2.07-5.72-4.05-1.98-2.24-3.52-5.19-4.55-7.68-1.19-2.86-1.69-4.58-1.93-7.76-.92-12.05.35-24.55-.23-36.61-.04-.76-.11-2.32-.76-2.78-.12-.09-.32-.08-.48-.16s-.83-.59-.89-.6c-.22-.06-.55.05-.81,0-.35-.07-1.27-.51-1.41-.86-.25-.6-.52-4.73-.3-5.1.01-.02.37-.26.39-.26h24.9Z"/>
  <path d="M265.8,12v5.46s-.12.25-.15.27c-.4-.12-.84.37-.89.38-.93.2-1.09.29-1.93.59-.22.08-.58.08-.72.16-.04.02-.57.57-.6.6-.46.62-.49,2.97-.52,3.86-.08,2.44.12,4.9.13,7.32.05,13.56-.06,27.12,0,40.68.05.31.72,1.34.99,1.47.29.15,1.11.29,1.44.4.1.03.09.19.19.22.71.23,1.1-.02,1.64.74.08.12.43.82.43.89v4.5h-25.62s-.18-.16-.3-.12v-5.28s.16.03.2-.04c.07-.1,0-.31.1-.33.2-.04.47.06.69,0,.09-.02.07-.22.16-.24.76-.17,1.15-.06,2-.5s1.62-1.35,1.64-2.31V21.42c-.12-1.43-.18-1.95-1.42-2.66-.91-.52-.89-.42-1.85-.67-.38-.1-1.07-.43-1.22-.82-.35-.94-.45-3.97-.32-4.98,0-.02.22-.41.25-.41h25.38s.18.16.3.12Z"/>
  <path class="cls-1" d="M306.93,49.35c.41.18.92.4,1.32.56,2.87,1.18,4.65,3.11,5.88,5.98,1.76,4.12,1.52,8.94-1.02,12.72-1.52,2.26-3.49,4.16-6.24,4.93-4.71-.17-9.7.31-14.38.03-1.11-.07-1.1-.24-1.62-1.14-.1-7.41-.1-14.8,0-22.21.24-.2.33-.66.48-.82.25-.28,6.62-.3,7.52-.31,1.45-.02,7-.19,8.07.27Z"/>
  <path class="cls-1" d="M306.92,19.61c1.8.76,3.63,2.31,4.75,4.19,1.63,2.75,2.35,6.58,1.5,9.95-.48,1.89-1.79,4.49-3.3,5.86-1.13,1.02-3.23,2.31-4.77,2.63-.71.15-1.75-.08-2.27.38-3.06-.32-6.89.39-9.86,0-.22-.03-.15-.21-.26-.24-.31-.09-.84-.02-1.2-.17-.05-.02-.64-.8-.64-.85.05-4.25-.33-8.48-.24-12.73.03-1.22.21-2.6.25-3.83.05-1.54-.21-3.62-.01-5.05.03-.2.17-.14.24-.27.04-.08-.02-.25.04-.35.24-.42,1.13-.32,1.45-.39.1-.02.03-.22.25-.25,1.09-.14,2.92,0,4.09,0,3.19.02,7-.12,9.97,1.13Z"/>
  <path class="cls-1" d="M205.17,18.52c.84.39,2.3.51,3.42.95.3.12.44.45.92.34l.02.33c.6-.1,1.05.55,1.48.93,1.64,1.45,2.29,2.32,3.2,4.63,1.23,3.1,1.33,6.84-.1,10.15-.33.77-2.11,3.45-2.88,3.99-1.12.78-3.07,2.08-4.57,2.37-.54.1-1.15.02-1.74.16-.11.03-.05.21-.26.24-1.54.2-6.74.19-8.29,0-.21-.03-.15-.24-.43-.3-.26-.05-1.14.04-1.29-.1-.04-.04.01-.42-.31-.46l.02-22.53c.37-.61.88-.39,1.39-.51.1-.02.03-.22.26-.25.83-.11,8.74-.14,9.16.05Z"/>
  <path class="cls-1" d="M477.59,22.45s.2.82.26.98c.73,1.94,1.39,3.72,2.09,5.73,1.21,3.46,2.28,6.78,3.44,10.12.57,1.64,1.33,3.34,1.79,4.81.75,2.35,1.46,4.6,2.24,6.75.13.36.54,1.02.62,1.43.05.28,0,.65-.01.94l-1.36.44-19.54-.04c-1.28-.29.18-2.66.16-3.48.79-1.44,1.25-3.21,1.82-4.81.16-.47.88-1.96.93-2.21s-.05-.55,0-.8c.01-.07.53-.95.59-1.13,1.49-4.29,2.87-8.51,4.39-12.87.61-1.77,1.23-3.35,1.83-5.01.16-.43-.1-.97.74-.86Z"/>
  <path class="cls-1" d="M44.27,22.46s0,.19.06.3c.25.4.1.36.22.68.26.74.66,1.46.9,2.22.93,2.86,2.05,5.88,3.09,8.91.9,2.61,1.63,4.96,2.56,7.64.8,2.33,1.67,4.76,2.48,7.13.46,1.34,1.23,2.61,1.14,4.08-.43-.08-.49.01-.77.25h-20.14c-.72-.44-.57-.94-.39-1.69.25-1.05.85-2.21,1.18-3.14,1.16-3.24,2.27-6.43,3.41-9.67.99-2.81,1.86-5.57,2.86-8.42.91-2.61,1.81-4.99,2.69-7.42.07-.2.06-.69.25-.81.1-.07.41-.1.47-.04Z"/>
</svg>