<?xml version="1.0" encoding="UTF-8" standalone="no"?>
<svg xmlns:dc="http://purl.org/dc/elements/1.1/" xmlns:cc="http://creativecommons.org/ns#" xmlns:rdf="http://www.w3.org/1999/02/22-rdf-syntax-ns#" xmlns:svg="http://www.w3.org/2000/svg" xmlns="http://www.w3.org/2000/svg" version="1.1" width="500" height="401.28644" xml:space="preserve">
	<title>Band</title>
	<g transform="translate(1.0169884e-5,-1.2826872e-6)">
		<path style="fill:#ffc20f;fill-opacity:1;fill-rule:evenodd;stroke:none" d="M 488.67688,146.79137 C 464.65551,182.51329 388.71381,271.31303 254.60381,270.56229 117.23793,269.7946 46.03418,182.68598 22.052941,148.69427 16.022409,140.15399 15.723464,132.34358 21.95184,123.24937 46.03418,88.074878 120.31384,0.110915 254.28797,1.275e-4 c 136.90817,-0.1238 214.16231,92.3334755 234.14697,123.6402625 5.89598,9.23433 5.89598,14.539 0.24194,23.15098 l 0,0 z M 254.74101,15.87509 c -89.23102,0 -148.28719,72.893825 -148.28719,120.1114 0,44.75422 57.82261,120.09479 148.99941,120.09479 93.97399,0 150.4845,-76.33764 149.60293,-120.09479 0.58662,-48.204875 -60.89189,-120.1114 -150.31515,-120.1114 l 0,0" />
		<path style="fill:#008c45;fill-opacity:1;fill-rule:evenodd;stroke:none" d="m 255.01941,240.53019 c 58.92591,0 106.69688,-46.96765 106.69688,-104.90212 0,-57.934492 -47.77097,-104.901155 -106.69688,-104.901155 -58.92924,0 -106.70053,46.966663 -106.70053,104.901155 0,57.93447 47.77129,104.90212 106.70053,104.90212 l 0,0" />
		<path style="fill:#008c45;fill-opacity:0.98039216;fill-rule:nonzero;stroke:none" d="m 425.72592,301.16624 c -28.729,-0.0346 -43.26825,0.10097 -43.26825,0.10097 l -20.81691,100.01922 78.18502,0 c 0,0 48.54903,-1.05863 55.92069,-42.89423 2.65833,-15.13924 18.9081,-59.4628 -36.57734,-57.12499 -12.7166,-0.0615 -23.86689,-0.0895 -33.44321,-0.10097 z m -340.793929,0.1047 C 56.78098,301.21264 20.17363,301.44673 20.17363,301.44673 L -1.0169884e-5,398.9751 81.898841,398.9751 c 0,0 21.002719,1.26645 29.430179,-9.04709 -3.37476,5.9011 -6.11119,10.31123 -6.11119,10.31123 l 44.36406,0 8.617,-14.0849 36.55492,0 0,14.0849 76.50574,0 10.93581,-49.3944 28.58119,49.3944 42.87552,0 22.69816,-98.79251 -41.8171,0 -9.05084,51.71692 -26.05294,-51.71692 -45.81519,0 -17.66409,80.71326 -17.64914,-80.71326 -47.92455,0 -43.72077,68.94718 c 0,0 7.78768,-19.34343 -7.97373,-24.39613 7.97497,-5.03384 15.96724,-10.08824 14.91144,-26.47181 0.20813,-3.99693 -1.26263,-17.66446 -24.99825,-18.07924 -5.83512,-0.10369 -14.279409,-0.15633 -23.663079,-0.17579 z m -32.46333,24.75142 c 0,0 25.22588,0.24549 31.73029,0.015 6.52326,-0.20813 5.38936,2.11165 5.38936,5.05276 l 0,0.004 c 0.0754,7.76758 -7.06863,6.52258 -7.06863,6.52258 l -31.730287,0 1.679267,-11.59405 z m 364.131619,1.48854 c 0,0 13.76159,0.41476 29.14593,0 16.98689,1.41324 10.31487,25.49236 8.48611,30.95985 -8.48404,20.43704 -45.9274,14.57109 -45.9274,14.57109 l 8.29536,-45.53094 z m -229.61448,5.04902 6.08873,33.83965 -23.52844,0 17.43971,-33.83965 z M 45.568332,359.70495 c 0,0 28.901969,0.28325 36.367909,0.0449 7.46594,-0.24585 6.18225,2.41121 6.18225,5.76711 0.0705,8.90879 -8.10462,7.48003 -8.10462,7.48003 l -36.367906,0 1.922367,-13.292 z" />
	</g>
</svg>
