<svg xmlns="http://www.w3.org/2000/svg" width="512" height="275.047"><path fill="#c00028" d="M233.663 0H87.978C71.638 0 77.74 13.342 77.74 13.342l70.408 178.988c6.83 18.194 7.345 32.674 1.449 43.222-5.683 10.548-13.957 16.746-24.087 19.23-10.13 2.381-20.27.417-30.815-4.855-10.137-5.795-15.925-15.824-17.889-29.784-3.311-11.474 1.035-23.99 12.613-37.533 11.586-13.445 18.303-28.44 19.651-45.294 1.034-8.689-1.348-16.854-7.132-24.087-5.794-6.724-13.027-12-21.719-14.898-8.688-2.998-18.303-3.928-27.918-2.475-10.137 1.445-18.818 6.299-26.57 14.058-11.07 11.578-18.717 27.402-23.164 48.083-4.245 20.783-3.304 41.569 3.413 62.146 4.346 13.03 14.061 25.438 29.467 37.536 14.991 11.477 31.23 17.37 49.11 17.37 0 0 135.351-.102 147.456 0 10.13 0 10.029-13.028 10.029-13.028V9.1c0-6.52-8.379-9.1-8.379-9.1m272.355 54.906c-4.335-13.027-14.061-25.54-29.467-37.528C461.56 5.792 445.32 0 427.433 0H279.884c-10.13-.105-10.025 13.027-10.025 13.027v252.816c0 6.515 8.375 9.203 8.375 9.203H424.02c16.34 0 10.242-13.441 10.242-13.441L363.749 82.824c-6.728-18.303-7.244-32.78-1.449-43.324 5.784-10.547 14.058-16.854 24.188-19.232 10.133-2.483 20.27-.516 30.815 4.76 10.13 5.784 15.924 15.917 17.888 29.878 3.312 11.474-1.034 24.087-12.609 37.532-11.578 13.446-18.306 28.433-19.755 45.291-.93 8.692 1.449 16.858 7.243 24.2 5.784 6.724 13.028 11.992 21.709 14.89 8.681 2.893 18.303 3.823 27.917 2.378 10.13-1.449 18.819-6.307 26.578-13.96 11.063-11.58 18.713-27.508 23.157-48.19 4.245-20.68 3.311-41.463-3.413-62.141"/></svg>